<svg xmlns="http://www.w3.org/2000/svg" width="114.106" height="17.07" viewBox="0 0 114.106 17.07">
  <g id="Group_11225" data-name="Group 11225" transform="translate(0 -0.023)">
    <g id="Group_11191" data-name="Group 11191" transform="translate(0 0.023)">
      <path id="Path_17460" data-name="Path 17460" d="M10.62,20.575l-1.277-1.27a6.969,6.969,0,0,0-2.053,2.1,3.327,3.327,0,0,0-1.106-.838,3.888,3.888,0,0,0-1.7-.363,4.294,4.294,0,0,0-2.3.621,4.417,4.417,0,0,0-1.6,1.723A5.219,5.219,0,0,0,0,25.045a5.106,5.106,0,0,0,.586,2.477,4.565,4.565,0,0,0,1.606,1.723,4.211,4.211,0,0,0,2.289.641A3.947,3.947,0,0,0,6.2,29.523a3.264,3.264,0,0,0,1.091-.83,6.969,6.969,0,0,0,2.049,2.093l1.275-1.269a7.454,7.454,0,0,1,0-8.942M6.607,26.615a1.924,1.924,0,0,1-.149.145,2,2,0,0,1-1.361.467A2.067,2.067,0,0,1,4.03,26.95a2.017,2.017,0,0,1-.75-.775,2.419,2.419,0,0,1,0-2.258,2.033,2.033,0,0,1,.75-.775A2.067,2.067,0,0,1,5.1,22.864a2.157,2.157,0,0,1,1.1.277,1.942,1.942,0,0,1,.265.188,1.82,1.82,0,0,1,.466.578,2.42,2.42,0,0,1,.25,1.119,2.242,2.242,0,0,1-.568,1.588" transform="translate(0 -16.549)" fill="#fff"/>
      <path id="Path_17461" data-name="Path 17461" d="M162.945,36.378a4.787,4.787,0,0,1-2.279-.536,3.925,3.925,0,0,1-1.567-1.463,4.059,4.059,0,0,1-.558-2.134V26.867H161.5v5.34a1.869,1.869,0,0,0,.173.831,1.249,1.249,0,0,0,.5.545,1.5,1.5,0,0,0,.769.192,1.309,1.309,0,0,0,1.029-.42,1.665,1.665,0,0,0,.375-1.148v-5.34h2.963v5.377a4.154,4.154,0,0,1-.548,2.152,3.858,3.858,0,0,1-1.529,1.455,4.774,4.774,0,0,1-2.289.526" transform="translate(-135.693 -23.021)" fill="#fff"/>
      <path id="Path_17462" data-name="Path 17462" d="M458.071,26.023a3.516,3.516,0,0,0-1.827-.478,4.086,4.086,0,0,0-1.933.45,3.424,3.424,0,0,0-.7.487v-.747h-2.962v9.511h2.962v-5.51a1.646,1.646,0,0,1,.211-.842,1.488,1.488,0,0,1,.577-.565,1.7,1.7,0,0,1,.827-.2,1.592,1.592,0,0,1,1.155.45,1.549,1.549,0,0,1,.461,1.159v5.51H459.8V29.085a3.528,3.528,0,0,0-.461-1.771,3.463,3.463,0,0,0-1.27-1.292" transform="translate(-385.706 -21.889)" fill="#fff"/>
      <path id="Path_17463" data-name="Path 17463" d="M531.458,26.023a3.516,3.516,0,0,0-1.827-.478,4.087,4.087,0,0,0-1.933.45,3.427,3.427,0,0,0-.7.487v-.747h-2.962v9.511H527v-5.51a1.643,1.643,0,0,1,.211-.842,1.488,1.488,0,0,1,.577-.565,1.7,1.7,0,0,1,.827-.2,1.592,1.592,0,0,1,1.155.45,1.549,1.549,0,0,1,.461,1.159v5.51h2.962V29.085a3.529,3.529,0,0,0-.461-1.771,3.465,3.465,0,0,0-1.27-1.292" transform="translate(-448.517 -21.889)" fill="#fff"/>
      <path id="Path_17464" data-name="Path 17464" d="M604.884,26a4.958,4.958,0,0,0-2.462-.593,5.165,5.165,0,0,0-2.559.632,4.693,4.693,0,0,0-1.789,1.732,5.047,5.047,0,0,0,.019,5,4.672,4.672,0,0,0,1.847,1.732,5.662,5.662,0,0,0,2.693.621,5.806,5.806,0,0,0,2.174-.392,4.18,4.18,0,0,0,1.673-1.215l-1.635-1.607a2.731,2.731,0,0,1-.981.717,3.085,3.085,0,0,1-1.231.239,2.56,2.56,0,0,1-1.3-.315,2.127,2.127,0,0,1-.847-.91,2.573,2.573,0,0,1-.155-.389l6.685-.032a3.838,3.838,0,0,0,.125-.623,5.2,5.2,0,0,0,.029-.545,4.689,4.689,0,0,0-.615-2.411A4.415,4.415,0,0,0,604.884,26m-3.626,1.971a2.185,2.185,0,0,1,1.2-.326,1.985,1.985,0,0,1,1.087.287,1.786,1.786,0,0,1,.683.813,2.657,2.657,0,0,1,.149.458l-4.048.023a2.479,2.479,0,0,1,.139-.356,2.149,2.149,0,0,1,.788-.9" transform="translate(-511.328 -21.771)" fill="#fff"/>
      <path id="Path_17465" data-name="Path 17465" d="M678.877,32.258a2.624,2.624,0,0,1-1.029.19,2.227,2.227,0,0,1-1.1-.277,1.963,1.963,0,0,1-.779-.776,2.3,2.3,0,0,1-.279-1.148,2.211,2.211,0,0,1,.279-1.119,2.012,2.012,0,0,1,.769-.766,2.208,2.208,0,0,1,1.106-.277,2.67,2.67,0,0,1,.99.172,2.036,2.036,0,0,1,.76.536l1.9-1.913a4.8,4.8,0,0,0-1.625-1.1,5.324,5.324,0,0,0-2.029-.374,5.461,5.461,0,0,0-2.635.632,4.764,4.764,0,0,0-1.847,1.732,4.688,4.688,0,0,0-.673,2.5,4.761,4.761,0,0,0,.663,2.488,4.686,4.686,0,0,0,1.837,1.741,5.474,5.474,0,0,0,2.635.631,4.951,4.951,0,0,0,3.731-1.55l-1.9-1.876a2.175,2.175,0,0,1-.779.556" transform="translate(-575.753 -21.771)" fill="#fff"/>
      <path id="Path_17466" data-name="Path 17466" d="M314.438,32.258a2.623,2.623,0,0,1-1.029.19,2.226,2.226,0,0,1-1.1-.277,1.961,1.961,0,0,1-.779-.776,2.3,2.3,0,0,1-.279-1.148,2.213,2.213,0,0,1,.279-1.119,2.011,2.011,0,0,1,.77-.766,2.208,2.208,0,0,1,1.106-.277,2.671,2.671,0,0,1,.99.172,2.037,2.037,0,0,1,.76.536l1.9-1.913a4.8,4.8,0,0,0-1.625-1.1,5.325,5.325,0,0,0-2.029-.374,5.461,5.461,0,0,0-2.635.632,4.764,4.764,0,0,0-1.847,1.732,4.687,4.687,0,0,0-.673,2.5,4.761,4.761,0,0,0,.663,2.488,4.686,4.686,0,0,0,1.837,1.741,5.474,5.474,0,0,0,2.635.631,4.95,4.95,0,0,0,3.732-1.55l-1.9-1.876a2.174,2.174,0,0,1-.779.556" transform="translate(-263.832 -21.771)" fill="#fff"/>
      <path id="Path_17467" data-name="Path 17467" d="M749.2,4.024h-2.116V.178h-2.962V4.024h-2.1V6.531h2.1v7h2.962v-7H749.2Z" transform="translate(-635.096 -0.178)" fill="#fff"/>
      <path id="Path_17468" data-name="Path 17468" d="M377.508,26.039a5.712,5.712,0,0,0-5.241.009,4.828,4.828,0,0,0-1.818,1.732,4.618,4.618,0,0,0-.663,2.449,4.7,4.7,0,0,0,.673,2.488,4.924,4.924,0,0,0,1.827,1.76,5.584,5.584,0,0,0,5.232,0,4.957,4.957,0,0,0,1.827-1.751,4.692,4.692,0,0,0,.673-2.5,4.618,4.618,0,0,0-.673-2.458,4.786,4.786,0,0,0-1.837-1.732m-.769,5.368a1.809,1.809,0,0,1-.741.774,2.381,2.381,0,0,1-2.193,0,1.868,1.868,0,0,1-.75-.774,2.432,2.432,0,0,1-.269-1.159,2.292,2.292,0,0,1,.269-1.109,1.951,1.951,0,0,1,.75-.776,2.159,2.159,0,0,1,1.1-.277,2.108,2.108,0,0,1,1.087.277,1.985,1.985,0,0,1,.74.766,2.275,2.275,0,0,1,.27,1.119,2.513,2.513,0,0,1-.26,1.159" transform="translate(-316.497 -21.771)" fill="#fff"/>
      <path id="Path_17469" data-name="Path 17469" d="M86.584,25.735v.755a3.323,3.323,0,0,0-.856-.582,3.886,3.886,0,0,0-1.7-.363,4.284,4.284,0,0,0-3.9,2.344,5.3,5.3,0,0,0-.577,2.5,5.182,5.182,0,0,0,.577,2.477,4.521,4.521,0,0,0,1.587,1.723,4.23,4.23,0,0,0,2.317.641,3.919,3.919,0,0,0,1.693-.363,3.35,3.35,0,0,0,.866-.584v4.679h2.923V25.735Zm-1.962,6.831a2.119,2.119,0,0,1-1.077-.277,1.871,1.871,0,0,1-.74-.776,2.4,2.4,0,0,1-.26-1.128,2.333,2.333,0,0,1,.269-1.129,1.969,1.969,0,0,1,.741-.776,2.1,2.1,0,0,1,1.086-.277,2.053,2.053,0,0,1,1.077.277,2.01,2.01,0,0,1,.731.766,2.275,2.275,0,0,1,.269,1.119,2.2,2.2,0,0,1-.587,1.588,2,2,0,0,1-1.51.612" transform="translate(-68.081 -21.889)" fill="#fff"/>
      <path id="Path_17470" data-name="Path 17470" d="M236.321,26.635a3.386,3.386,0,0,0-.875-.6,3.888,3.888,0,0,0-1.7-.363,4.292,4.292,0,0,0-2.3.621,4.417,4.417,0,0,0-1.6,1.723,5.222,5.222,0,0,0-.586,2.5,5.107,5.107,0,0,0,.586,2.477,4.566,4.566,0,0,0,1.606,1.723,4.21,4.21,0,0,0,2.289.641,3.946,3.946,0,0,0,1.721-.363,3.345,3.345,0,0,0,.856-.583v.754h2.9v-9.3h-2.9ZM234.359,32.7a2.066,2.066,0,0,1-1.067-.277,2.017,2.017,0,0,1-.75-.776,2.42,2.42,0,0,1,0-2.258,2.033,2.033,0,0,1,.75-.776,2.067,2.067,0,0,1,1.067-.277,2.158,2.158,0,0,1,1.1.277,1.835,1.835,0,0,1,.731.766,2.417,2.417,0,0,1,.25,1.119,2.242,2.242,0,0,1-.568,1.588,1.957,1.957,0,0,1-1.51.612" transform="translate(-196.224 -22.001)" fill="#fff"/>
    </g>
  </g>
</svg>
