<svg xmlns="http://www.w3.org/2000/svg" width="45" height="45" viewBox="0 0 45 45">
  <g id="Group_11102" data-name="Group 11102" transform="translate(5014 -2437.001)">
    <ellipse id="Ellipse_2119" data-name="Ellipse 2119" cx="22.118" cy="22.059" rx="22.118" ry="22.059" transform="translate(-5013.69 2437.402)" fill="#0047bb"/>
    <g id="_166_b" data-name="166_b" transform="translate(-5014 2437.001)">
      <path id="Path_17413" data-name="Path 17413" d="M22.5,0A22.5,22.5,0,1,0,45,22.5,22.5,22.5,0,0,0,22.5,0Zm0,43.594A21.094,21.094,0,1,1,43.594,22.5,21.094,21.094,0,0,1,22.5,43.594Z" fill="#0047bb"/>
    </g>
    <path id="Path_17418" data-name="Path 17418" d="M-4984.387,2444.344c-.547.545-11.795,21.905-11.795,21.905l-13.892-11.2,5.739-4.327,6.74,6.194,11.705-14.3S-4983.841,2443.8-4984.387,2444.344Z" transform="translate(4.595 5.78)" fill="#fff"/>
  </g>
</svg>
