<svg xmlns="http://www.w3.org/2000/svg" width="99.399" height="14.863" viewBox="0 0 99.399 14.863">
  <g id="logo-primary" transform="translate(-8.916 -1.34)">
    <path id="Path_24082" data-name="Path 24082" d="M18.171,16.406,17.058,15.3a6.085,6.085,0,0,0-1.789,1.828,2.924,2.924,0,0,0-.963-.729,3.388,3.388,0,0,0-1.483-.316,3.741,3.741,0,0,0-2,.542,3.849,3.849,0,0,0-1.39,1.5A4.54,4.54,0,0,0,8.916,20.3a4.434,4.434,0,0,0,.516,2.158,3.976,3.976,0,0,0,1.39,1.5,3.662,3.662,0,0,0,2,.559,3.419,3.419,0,0,0,1.5-.316,2.821,2.821,0,0,0,.951-.722A6.1,6.1,0,0,0,17.051,25.3l1.118-1.109a6.494,6.494,0,0,1,0-7.789m-3.495,5.265a1.5,1.5,0,0,1-.131.126,1.737,1.737,0,0,1-1.185.408,1.806,1.806,0,0,1-.929-.241,1.753,1.753,0,0,1-.654-.676,2.1,2.1,0,0,1,0-1.968,1.759,1.759,0,0,1,.654-.674,1.79,1.79,0,0,1,.929-.243,1.878,1.878,0,0,1,.956.243,1.687,1.687,0,0,1,.23.172,1.572,1.572,0,0,1,.4.5,2.107,2.107,0,0,1,.217.973,1.954,1.954,0,0,1-.494,1.376" transform="translate(0 -11.559)" fill="#0047ba"/>
    <path id="Path_24083" data-name="Path 24083" d="M128.524,29.106a4.169,4.169,0,0,1-1.985-.468,3.417,3.417,0,0,1-1.366-1.274,3.533,3.533,0,0,1-.487-1.859V20.82h2.58v4.644a1.634,1.634,0,0,0,.15.724,1.1,1.1,0,0,0,.437.476,1.309,1.309,0,0,0,.669.172,1.137,1.137,0,0,0,.9-.366,1.45,1.45,0,0,0,.327-1V20.825h2.58V25.5a3.612,3.612,0,0,1-.482,1.883,3.352,3.352,0,0,1-1.331,1.268,4.157,4.157,0,0,1-1.988.452" transform="translate(-95.859 -16.13)" fill="#0047ba"/>
    <path id="Path_24084" data-name="Path 24084" d="M344.327,20.264a3.073,3.073,0,0,0-1.593-.416,3.565,3.565,0,0,0-1.684.392,3.022,3.022,0,0,0-.611.425v-.65h-2.58V28.3h2.58V23.5a1.424,1.424,0,0,1,.184-.734,1.29,1.29,0,0,1,.5-.483,1.465,1.465,0,0,1,.721-.172,1.376,1.376,0,0,1,1.006.392,1.354,1.354,0,0,1,.4,1.01V28.3h2.58V22.932a3.074,3.074,0,0,0-.4-1.548,3.03,3.03,0,0,0-1.106-1.125" transform="translate(-272.37 -15.324)" fill="#0047ba"/>
    <path id="Path_24085" data-name="Path 24085" d="M397.9,20.264a3.072,3.072,0,0,0-1.591-.416,3.56,3.56,0,0,0-1.677.392,2.986,2.986,0,0,0-.612.425v-.65h-2.58V28.3h2.58V23.5a1.442,1.442,0,0,1,.184-.734,1.3,1.3,0,0,1,.5-.483,1.471,1.471,0,0,1,.721-.172,1.376,1.376,0,0,1,1.006.392,1.348,1.348,0,0,1,.4,1.01V28.3h2.58V22.932a3.074,3.074,0,0,0-.4-1.548,3.03,3.03,0,0,0-1.109-1.12" transform="translate(-316.735 -15.325)" fill="#0047ba"/>
    <path id="Path_24086" data-name="Path 24086" d="M451.494,20.271a4.317,4.317,0,0,0-2.145-.516,4.508,4.508,0,0,0-2.236.55A4.1,4.1,0,0,0,445,23.97a4.163,4.163,0,0,0,.586,2.2,4.069,4.069,0,0,0,1.608,1.508,4.938,4.938,0,0,0,2.342.543,5.07,5.07,0,0,0,1.892-.344,3.648,3.648,0,0,0,1.458-1.058l-1.426-1.4a2.391,2.391,0,0,1-.86.624,2.7,2.7,0,0,1-1.073.208,2.219,2.219,0,0,1-1.13-.275,1.856,1.856,0,0,1-.738-.791,2.359,2.359,0,0,1-.136-.344l5.823-.028a3.3,3.3,0,0,0,.11-.543c.015-.16.024-.318.024-.475a4.1,4.1,0,0,0-.535-2.1,3.837,3.837,0,0,0-1.458-1.433m-3.158,1.72a1.9,1.9,0,0,1,1.047-.284,1.729,1.729,0,0,1,.946.251,1.548,1.548,0,0,1,.6.707,2.208,2.208,0,0,1,.129.4l-3.526.021a2.358,2.358,0,0,1,.12-.31,1.875,1.875,0,0,1,.688-.784" transform="translate(-361.079 -15.247)" fill="#0047ba"/>
    <path id="Path_24087" data-name="Path 24087" d="M505.3,25.716a2.268,2.268,0,0,1-.9.172,1.926,1.926,0,0,1-.955-.249,1.708,1.708,0,0,1-.688-.674,2.016,2.016,0,0,1-.242-1,1.935,1.935,0,0,1,.242-.975,1.75,1.75,0,0,1,.671-.667,1.933,1.933,0,0,1,.963-.241,2.329,2.329,0,0,1,.86.15,1.782,1.782,0,0,1,.662.468l1.658-1.667a4.167,4.167,0,0,0-1.415-.96,4.643,4.643,0,0,0-1.761-.323,4.775,4.775,0,0,0-2.291.559,4.155,4.155,0,0,0-1.608,1.508,4.1,4.1,0,0,0-.586,2.176,4.145,4.145,0,0,0,.578,2.164,4.061,4.061,0,0,0,1.6,1.517,4.768,4.768,0,0,0,2.294.547,4.312,4.312,0,0,0,3.251-1.35l-1.658-1.634a1.892,1.892,0,0,1-.688.483" transform="translate(-406.555 -15.242)" fill="#0047ba"/>
    <path id="Path_24088" data-name="Path 24088" d="M239.306,25.716a2.277,2.277,0,0,1-.9.172,1.931,1.931,0,0,1-.955-.249,1.7,1.7,0,0,1-.678-.674,2,2,0,0,1-.244-1,1.918,1.918,0,0,1,.244-.975,1.756,1.756,0,0,1,.669-.667,1.933,1.933,0,0,1,.963-.241,2.324,2.324,0,0,1,.86.15,1.782,1.782,0,0,1,.662.468l1.658-1.667a4.15,4.15,0,0,0-1.415-.96,4.632,4.632,0,0,0-1.77-.323,4.767,4.767,0,0,0-2.289.559,4.155,4.155,0,0,0-1.608,1.508,4.081,4.081,0,0,0-.588,2.176,4.161,4.161,0,0,0,.578,2.164,4.085,4.085,0,0,0,1.6,1.517,4.769,4.769,0,0,0,2.3.547,4.32,4.32,0,0,0,3.251-1.35l-1.66-1.634a1.878,1.878,0,0,1-.678.483" transform="translate(-186.304 -15.241)" fill="#0047ba"/>
    <path id="Path_24089" data-name="Path 24089" d="M556.778,4.69h-1.842V1.34h-2.58V4.69H550.53V6.875h1.827v6.1h2.58v-6.1h1.842Z" transform="translate(-448.463)" fill="#0047ba"/>
    <path id="Path_24090" data-name="Path 24090" d="M285.573,20.319a4.976,4.976,0,0,0-4.575,0,4.208,4.208,0,0,0-1.582,1.508,4.024,4.024,0,0,0-.578,2.134,4.088,4.088,0,0,0,.586,2.167,4.28,4.28,0,0,0,1.591,1.532,4.859,4.859,0,0,0,4.558,0,4.3,4.3,0,0,0,1.591-1.526,4.069,4.069,0,0,0,.586-2.174,4.016,4.016,0,0,0-.586-2.143,4.167,4.167,0,0,0-1.591-1.5m-.671,4.676a1.557,1.557,0,0,1-.645.674,2.064,2.064,0,0,1-1.911,0,1.622,1.622,0,0,1-.652-.674,2.122,2.122,0,0,1-.249-1.018,2,2,0,0,1,.236-.967,1.7,1.7,0,0,1,.652-.676,1.892,1.892,0,0,1,.956-.241,1.839,1.839,0,0,1,.946.241,1.72,1.72,0,0,1,.65.667,1.986,1.986,0,0,1,.236.975,2.183,2.183,0,0,1-.227,1.01" transform="translate(-223.499 -15.253)" fill="#0047ba"/>
    <path id="Path_24091" data-name="Path 24091" d="M73.127,20.013v.657a2.891,2.891,0,0,0-.745-.507,3.4,3.4,0,0,0-1.484-.316,3.732,3.732,0,0,0-3.4,2.041,4.618,4.618,0,0,0-.5,2.176,4.508,4.508,0,0,0,.5,2.158,3.939,3.939,0,0,0,1.376,1.5,3.675,3.675,0,0,0,2.017.559,3.407,3.407,0,0,0,1.476-.316,2.886,2.886,0,0,0,.753-.516v4.076h2.547V20Zm-1.71,5.951a1.835,1.835,0,0,1-.937-.244,1.636,1.636,0,0,1-.645-.674,2.09,2.09,0,0,1-.227-.984,2.035,2.035,0,0,1,.236-.984,1.72,1.72,0,0,1,.645-.676,1.839,1.839,0,0,1,.946-.241,1.8,1.8,0,0,1,.939.241,1.747,1.747,0,0,1,.642.669,1.985,1.985,0,0,1,.234.975,1.919,1.919,0,0,1-.516,1.376,1.739,1.739,0,0,1-1.316.533" transform="translate(-48.091 -15.323)" fill="#0047ba"/>
    <path id="Path_24092" data-name="Path 24092" d="M182.412,20.825a2.91,2.91,0,0,0-.762-.516A3.388,3.388,0,0,0,180.176,20a3.739,3.739,0,0,0-2,.54,3.846,3.846,0,0,0-1.391,1.5,4.551,4.551,0,0,0-.516,2.176,4.451,4.451,0,0,0,.516,2.157,3.982,3.982,0,0,0,1.4,1.5,3.68,3.68,0,0,0,2,.552,3.452,3.452,0,0,0,1.5-.316,2.9,2.9,0,0,0,.745-.516v.66h2.53v-8.1h-2.539ZM180.7,26.1a1.808,1.808,0,0,1-.93-.241,1.765,1.765,0,0,1-.654-.676,2.114,2.114,0,0,1,0-1.966,1.754,1.754,0,0,1,1.584-.917,1.87,1.87,0,0,1,.955.241,1.6,1.6,0,0,1,.636.667,2.1,2.1,0,0,1,.218.975,1.95,1.95,0,0,1-.5,1.376,1.7,1.7,0,0,1-1.314.533" transform="translate(-138.568 -15.448)" fill="#0047ba"/>
    <path id="Path_24093" data-name="Path 24093" d="M18.171,16.406,17.058,15.3a6.085,6.085,0,0,0-1.789,1.828,2.924,2.924,0,0,0-.963-.729,3.388,3.388,0,0,0-1.483-.316,3.741,3.741,0,0,0-2,.542,3.849,3.849,0,0,0-1.39,1.5A4.54,4.54,0,0,0,8.916,20.3a4.434,4.434,0,0,0,.516,2.158,3.976,3.976,0,0,0,1.39,1.5,3.662,3.662,0,0,0,2,.559,3.419,3.419,0,0,0,1.5-.316,2.821,2.821,0,0,0,.951-.722A6.1,6.1,0,0,0,17.051,25.3l1.118-1.109a6.494,6.494,0,0,1,0-7.789m-3.495,5.265a1.5,1.5,0,0,1-.131.126,1.737,1.737,0,0,1-1.185.408,1.806,1.806,0,0,1-.929-.241,1.765,1.765,0,0,1-.654-.676,2.1,2.1,0,0,1,0-1.968,1.759,1.759,0,0,1,.654-.674,1.79,1.79,0,0,1,.929-.243,1.878,1.878,0,0,1,.956.243,1.687,1.687,0,0,1,.23.172,1.572,1.572,0,0,1,.4.5,2.107,2.107,0,0,1,.217.973,1.954,1.954,0,0,1-.494,1.376" transform="translate(0 -11.559)" fill="#0047ba"/>
  </g>
</svg>
